<?xml version="1.0" encoding="iso-8859-1"?>
<!-- Generator: Adobe Illustrator 22.0.1, SVG Export Plug-In . SVG Version: 6.00 Build 0)  -->
<svg version="1.1" id="Layer_1" xmlns="http://www.w3.org/2000/svg" xmlns:xlink="http://www.w3.org/1999/xlink" x="0px" y="0px"
	 viewBox="0 0 400 400" style="enable-background:new 0 0 400 400;" xml:space="preserve">
<g id="Logo_Large_2_">
	<path id="White_1_" style="fill:#FFFFFF;" d="M345.183,160.075c-10.398-38.802-35.283-71.233-70.073-91.32
		c-22.894-13.216-48.825-20.202-74.989-20.202c-10.453,0-20.919,1.122-31.219,3.303c-9.169-3.803-19.088-5.797-29.313-5.797
		c-20.426,0-39.629,7.954-54.073,22.397c-5.803,5.803-10.461,12.32-14.005,19.264c-2.71-0.569-5.515-0.877-8.392-0.877
		c-22.488,0-40.784,18.296-40.784,40.784c0,16.201,9.52,30.184,23.238,36.76c-1.874,6.182-2.845,12.676-2.845,19.318
		c0,12.799,3.621,25.035,10.347,35.566c-0.552,6.181-0.079,12.47,1.575,18.643c17.587,65.64,77.334,111.477,145.297,111.477h0.006
		c13.089,0,26.174-1.725,38.89-5.133c38.802-10.398,71.232-35.276,91.318-70.063C350.245,239.406,355.58,198.876,345.183,160.075z"
		/>
	<path id="Yellow_1_" style="fill:#FFE000;" d="M137.839,154.867c5.15,5.15,8.624,11.336,10.443,17.886
		c10.017-1.725,19.62-6.44,27.355-14.175c7.811-7.811,12.544-17.529,14.225-27.655c-2.596,0.389-5.186,0.909-7.76,1.598
		c-14.964,4.009-30.332-4.868-34.341-19.826c-3.856-14.388,4.214-29.157,18.147-33.829c-19.602-11.837-45.45-9.305-62.369,7.614
		c-16.03,16.029-19.143,40.074-9.36,59.228C108.798,140.017,126.035,143.063,137.839,154.867z"/>
	<path id="Magenta_1_" style="fill:#FF0080;" d="M99.095,196.986c14.831-3.976,30.068,4.724,34.231,19.455
		c1.573-1.172,3.084-2.467,4.513-3.896c10.778-10.778,14.252-26.084,10.443-39.792c-15.769,2.716-32.568-2-44.743-14.175
		c-3.88-3.88-6.993-8.233-9.36-12.869c-5.106,1.988-9.895,5.035-14.018,9.158c-15.927,15.927-15.927,41.75,0,57.678
		c0.147,0.147,0.3,0.283,0.449,0.427C83.891,205.375,90.481,199.294,99.095,196.986z"/>
	<path id="Red_1_" style="fill:#FF0000;" d="M148.282,172.753c-1.82-6.55-5.294-12.736-10.443-17.886
		c-11.804-11.804-29.041-14.85-43.659-9.158c2.368,4.636,5.481,8.989,9.36,12.869C115.715,170.753,132.513,175.468,148.282,172.753z
		"/>
	<circle id="Magentiny" style="fill:#FF0080;" cx="63.118" cy="127.627" r="15.294"/>
	<path id="Blue_1_" style="fill:#00ADEF;" d="M320.561,166.673c-8.635-32.226-29.303-59.16-58.196-75.842
		c-28.893-16.679-62.549-21.114-94.778-12.476c-0.57,0.153-1.127,0.327-1.679,0.512c3.464,2.092,6.738,4.624,9.728,7.614
		c12.098,12.098,16.83,28.761,14.225,44.442c15.318-2.293,30.85,0.613,44.464,8.474c15.921,9.192,27.31,24.034,32.068,41.791
		c4.757,17.757,2.315,36.302-6.877,52.224c-9.192,15.921-24.033,27.307-41.789,32.067c-36.662,9.823-74.47-12.011-84.293-48.665
		c-0.034-0.126-0.075-0.248-0.11-0.373c-15.808,11.777-38.201,10.618-52.716-3.469c-2.416,5.595-3.041,12.01-1.341,18.354
		c14.934,55.74,65.529,92.591,120.675,92.591c10.669-0.003,21.514-1.382,32.298-4.272c32.225-8.635,59.159-29.301,75.841-58.194
		C324.764,232.558,329.196,198.898,320.561,166.673z"/>
	<path id="Green" style="fill:#009800;" d="M147.762,112.695c4.009,14.958,19.377,23.835,34.341,19.826
		c2.573-0.69,5.164-1.21,7.76-1.598c2.604-15.682-2.128-32.345-14.225-44.442c-2.99-2.99-6.263-5.522-9.728-7.614
		C151.975,83.538,143.905,98.307,147.762,112.695z"/>
	<path id="Violet_1_" style="fill:#000078;" d="M133.326,216.441c-4.163-14.73-19.4-23.431-34.231-19.455
		c-8.614,2.308-15.204,8.389-18.485,15.985C95.125,227.059,117.518,228.218,133.326,216.441z"/>
</g>
</svg>
