<?xml version="1.0" ?><!DOCTYPE svg  PUBLIC '-//W3C//DTD SVG 1.1//EN'  'http://www.w3.org/Graphics/SVG/1.1/DTD/svg11.dtd'><svg height="121.013px" style="enable-background:new 0 0 121.013 121.013;" version="1.1" viewBox="0 0 121.013 121.013" width="121.013px" xml:space="preserve" xmlns="http://www.w3.org/2000/svg" xmlns:xlink="http://www.w3.org/1999/xlink"><g id="Facebook"><path d="   M96.507,119.488l15,0.016c4.4,0,8-3.6,8-8V9.506c0-4.4-3.6-8-8-8h-102c-4.398,0-8,3.6-8,8v101.998c0,4.4,3.602,8,8,8l49.266,0.002   l0.041-0.285V68.852H44.922V50.75h13.891V31.653C60.299,16.278,75.925,16.03,75.925,16.03h18.352v17.607l-10.418,0.248   c-5.205,0.247-5.455,4.959-5.455,4.959V50.75h16.121L92.54,68.852H78.403v50.369l0.004,0.252l5.9,0.006" style="fill:none;stroke:#000000;stroke-width:3.0127;stroke-linecap:round;stroke-linejoin:round;stroke-miterlimit:10;"/></g><g id="Layer_1"/></svg>