<?xml version="1.0" ?><!DOCTYPE svg  PUBLIC '-//W3C//DTD SVG 1.1//EN'  'http://www.w3.org/Graphics/SVG/1.1/DTD/svg11.dtd'><svg height="123.992px" style="enable-background:new 0 0 123.992 123.992;" version="1.1" viewBox="0 0 123.992 123.992" width="123.992px" xml:space="preserve" xmlns="http://www.w3.org/2000/svg" xmlns:xlink="http://www.w3.org/1999/xlink"><g id="Instagram"><path d="   M93.098,31.943c0.904,0.465,1.932,0.726,3.021,0.726c3.666,0,6.639-2.973,6.639-6.64s-2.973-6.64-6.639-6.64   c-3.67,0-6.322,2.986-6.641,6.64c-0.139,1.592,0.014,2.424,0,2.975c-0.139,5.464-5.258,10.722-13.664,7.825   c-4.043-1.946-9.545-4.437-15.109-4.437c-15.434,0-27.945,12.512-27.945,27.945c0,15.433,12.512,27.943,27.945,27.943   c15.432,0,27.943-12.511,27.943-27.943c0-1.869,0.275-3.689,1.314-6.122c3.295-7.527,18.605-19.333,32.533-2.455   c0,11.067,0,39.748,0,39.748c0,17.043-13.947,30.987-30.988,30.987H32.482c-17.043,0-30.986-13.944-30.986-30.987V32.483   c0-17.043,13.943-30.987,30.986-30.987h59.025c17.041,0,30.988,13.944,30.988,30.987v4.798" style="fill:none;stroke:#000000;stroke-width:2.9918;stroke-linecap:round;stroke-linejoin:round;stroke-miterlimit:10;"/></g><g id="Layer_1"/></svg>