<?xml version="1.0" ?><!DOCTYPE svg  PUBLIC '-//W3C//DTD SVG 1.1//EN'  'http://www.w3.org/Graphics/SVG/1.1/DTD/svg11.dtd'><svg height="128.006px" style="enable-background:new 0 0 135.007 128.006;" version="1.1" viewBox="0 0 135.007 128.006" width="135.007px" xml:space="preserve" xmlns="http://www.w3.org/2000/svg" xmlns:xlink="http://www.w3.org/1999/xlink"><g id="Snapchat"><path d="   M22.416,81.315c-1.197,2.862-5.34,7.025-7.279,8.856c-2.928,2.557-6.064,4.63-9.617,5.595C5.47,95.783,5.421,95.8,5.375,95.819   c-0.729,0.275-2.459,0.455-3.545,2.116c-0.078,0.116-0.141,0.242-0.188,0.374c-0.367,1.067,0.053,2.214,0.568,2.842   c0.494,0.6,1.045,0.949,1.521,1.204c0.023,0.014,0.047,0.026,0.072,0.041c2.99,1.734,6.258,2.486,9.24,3.258   c0.014,0.003,0.027,0.007,0.041,0.01c2.15,0.491,4.131,0.753,5.748,1.453c0.078,0.133,0.24,0.684,0.619,1.597   c0.529,1.66,0.771,3.62,1.385,5.675c0.168,0.568,0.664,1.027,1.24,1.152c1.359,0.289,2.105-0.179,2.225-0.187   c0.055-0.005,0.109-0.012,0.164-0.021c4.994-0.879,9.979-1.658,14.553-0.498c0.004,0.001,0.008-0.001,0.01,0   c4.805,1.27,8.977,4.62,13.678,7.501c0.008,0.005,0.012,0.015,0.02,0.021v-0.01c3.121,1.986,6.729,3.933,10.895,4.077v0.01   c0.016,0,0.027,0,0.041,0c3.148,0.179,6.239-0.022,9.252-0.229c0.018,0,0.035,0,0.053,0c2.582-0.256,5.086-1.119,7.275-2.531   c0.031-0.018,0.062-0.035,0.094-0.052c4.943-2.842,9.336-6.269,14.15-8.413c0.008-0.004,0.014-0.009,0.021-0.012   c1.562-0.567,3.512-0.535,5.686-0.683c0.02-0.001,0.041,0,0.062,0c3.986-0.124,7.98,0.09,11.938,0.621   c0.137,0.018,0.277,0.018,0.414,0c0.52-0.062,1.088-0.411,1.363-0.768c0.277-0.354,0.355-0.646,0.414-0.851   c0.115-0.411,0.221-0.608,0.033-0.27c0.059-0.105,0.107-0.217,0.143-0.332c0.729-2.417,1.123-4.604,2.295-5.966   c0.527-0.517,1.434-0.776,2.459-0.757c0.078,0.001,0.152-0.002,0.229-0.01c3.441-0.408,6.551-1.656,9.5-2.719   c0.033-0.013,0.07-0.027,0.104-0.041c1.094-0.479,2.727-1.029,3.844-2.604c0.006-0.009,0.016-0.013,0.021-0.021l-0.01-0.011   c0.939-1.319,0.502-3.13-0.828-3.953l0.021-0.021c-0.043-0.028-0.082-0.046-0.125-0.073c-0.01-0.006-0.02-0.015-0.029-0.021v0.011   c-1.598-1.029-3.197-1.172-4.207-1.546c-0.021-0.008-0.041-0.015-0.062-0.021c-6.844-2.203-12.762-6.946-17.18-12.719   c-2.453-3.218-4.529-6.714-5.902-10.447c-0.004-0.014-0.006-0.027-0.01-0.041c-0.539-1.622-0.566-3.39,0.227-4.462   c0.012-0.01,0.021-0.02,0.031-0.03c1.236-1.782,3.504-2.929,5.922-3.829c0.012-0.004,0.021-0.007,0.031-0.01   c2.674-0.933,5.6-2.021,8.012-4.17c0.01-0.011,0.021-0.021,0.031-0.031c0.373-0.354,0.822-0.816,1.156-1.505   c0.338-0.688,0.496-1.764,0.053-2.696c0,0,0-0.007,0-0.011c-0.695-1.44-1.91-2.181-2.812-2.719c-0.002,0-0.006,0-0.01,0   c-1.51-0.885-3.27-0.942-4.797-0.445c-0.002,0.001-0.006-0.002-0.01,0c-0.01,0.003-0.02,0.007-0.031,0.01   c-1.65,0.504-2.996,1.106-4.246,1.266c-0.029,0.007-0.057,0.013-0.082,0.021c-1.779,0.316-3.5,0.395-4.84-0.104   c-0.012-0.202-0.02-0.596-0.072-1.08h0.01c-0.098-2.959,0.152-6.011,0.197-9.17c0,0,0-0.014,0-0.021   c0.135-4.802,0.328-9.745-0.373-14.722c-0.002-0.023-0.006-0.048-0.01-0.071c-1.525-8.396-6.842-15.626-13.582-20.438   c-4.9-3.489-10.715-5.438-16.621-5.986c-0.004-0.001-0.008,0-0.012,0c-1.98-0.201-3.959-0.272-5.932-0.248l0,0   c-7.99,0.054-16.252,2.183-22.73,7.323c-4.852,3.844-8.666,8.937-11.07,14.628c-0.004,0.013-0.008,0.027-0.01,0.041   c-2.291,5.864-2.078,12.104-1.768,17.885c0,0.004-0.002,0.008,0,0.011c0.188,4.063,0.633,7.998,0.258,11.733   c-0.031,0.146-0.031,0.182-0.051,0.27c-1.803,0.328-3.762,0.209-5.707-0.165c-0.01,0-0.021,0-0.031,0   c-1.332-0.23-2.754-0.781-4.361-1.234c-0.027-0.008-0.057-0.015-0.084-0.021c-1.559-0.358-3.094,0.098-4.27,0.976   c-0.014,0.01-0.035,0.021-0.051,0.031c-0.023,0.018-0.049,0.033-0.07,0.052c-0.959,0.636-2.27,1.703-2.338,3.558   c-0.004,0.122,0.008,0.243,0.031,0.364c0.207,1.089,0.875,1.886,1.467,2.406c0.596,0.52,1.154,0.863,1.5,1.131   c0.027,0.021,0.055,0.042,0.082,0.062c2.91,1.97,6.131,2.835,8.932,3.932c0.004,0,0.006-0.002,0.01,0   c1.939,0.861,3.625,2.203,4.01,3.89c0.484,2.134,0.111,5.94-0.592,8.04c-0.002,0.002-3.422,11.045-7.299,14.65" id="path12604_2_" style="fill:none;stroke:#000000;stroke-width:3.0064;stroke-linecap:round;stroke-linejoin:round;stroke-miterlimit:10;"/></g><g id="Layer_1"/></svg>