<?xml version="1.0" ?><!DOCTYPE svg  PUBLIC '-//W3C//DTD SVG 1.1//EN'  'http://www.w3.org/Graphics/SVG/1.1/DTD/svg11.dtd'><svg height="127.999px" style="enable-background:new 0 0 125.999 127.999;" version="1.1" viewBox="0 0 125.999 127.999" width="125.999px" xml:space="preserve" xmlns="http://www.w3.org/2000/svg" xmlns:xlink="http://www.w3.org/1999/xlink"><g id="Slack"><path d="   M90.072,101.181l0.799,2.426c1.769,5.371,7.175,8.453,12.016,6.85c4.84-1.604,7.352-7.311,5.583-12.684l-4.644-13.699l0,0   l13.555-4.707c5.328-1.852,8.324-7.318,6.657-12.15c-1.666-4.834-7.39-7.273-12.717-5.424L98.14,66.396l-0.143-0.43l-8.589-26.098   l0.312-0.098l13.234-4.596c5.328-1.85,8.323-7.318,6.655-12.148c-1.665-4.834-7.389-7.275-12.716-5.424L83.667,22.2l-0.179-0.303   l-4.32-13.123c-1.77-5.371-7.176-8.455-12.015-6.85c-4.84,1.604-7.353,7.311-5.584,12.684l4.365,13.256l0.173,0.432l-26.619,9.238   l-0.104-0.213l-4.259-12.928c-1.768-5.373-7.175-8.455-12.014-6.85c-4.84,1.604-7.352,7.311-5.582,12.682l4.41,13.416l0,0   L8.617,48.255c-5.328,1.85-8.324,7.318-6.656,12.15c1.666,4.834,7.39,7.273,12.718,5.424l13.034-4.521l0,0l8.74,26.479   l-0.174,0.062l-13.235,4.596c-5.329,1.852-8.323,7.318-6.656,12.152c1.668,4.832,7.39,7.271,12.718,5.424l13.036-4.527l0.163-0.072   l4.524,13.805c1.769,5.371,7.177,8.453,12.015,6.85c4.842-1.604,7.354-7.311,5.584-12.684l-4.634-14.018l0.289-0.111l26.357-9.178   l-0.3-0.85l-14.223-43.27l0,0l-26.642,9.246l0,0l8.697,26.42l0.174,0.012l19.219-6.674" style="fill:none;stroke:#000000;stroke-width:2.9988;stroke-linecap:round;stroke-linejoin:round;stroke-miterlimit:10;"/></g><g id="Layer_1"/></svg>