<?xml version="1.0" ?><!DOCTYPE svg  PUBLIC '-//W3C//DTD SVG 1.1//EN'  'http://www.w3.org/Graphics/SVG/1.1/DTD/svg11.dtd'><svg height="107.994px" style="enable-background:new 0 0 133.993 107.994;" version="1.1" viewBox="0 0 133.993 107.994" width="133.993px" xml:space="preserve" xmlns="http://www.w3.org/2000/svg" xmlns:xlink="http://www.w3.org/1999/xlink"><g id="Twitter"><path d="   M42.834,51.558c0,0-7.514,3.229-23.889-9.144c0,0-19.061-13.984-8.859-36.577c0,0,23.086,28.779,56.104,28.51   c0,0,2.417-52.179,46.442-25.013c0,0,10.469-1.884,16.645-6.725c0,0,1.609,6.724-10.201,14.792c0,0,4.295,0.807,13.422-3.496   c0,0-4.564,9.951-12.617,13.179c0,0-2.953,113.499-118.383,69.121c0,0,27.381,2.69,39.73-11.027c0,0-18.254,0.538-24.967-18.827   c0,0,9.396,2.422,10.738-1.344c0,0-19.061-5.648-20.939-26.628" style="fill:none;stroke:#000000;stroke-width:2.9933;stroke-linecap:round;stroke-linejoin:round;stroke-miterlimit:10;"/></g><g id="Layer_1"/></svg>